<svg preserveAspectRatio="none" overflow="visible" style="display: block;" width="2019.61" height="418.395" viewBox="0 0 2019.61 418.395" fill="none" xmlns="http://www.w3.org/2000/svg">
<g id="Group 489">
<path id="Vector 38" d="M326.071 406.434C344.457 356.542 387.084 333.59 406.289 328.286C406.363 328.266 406.424 328.34 406.404 328.414C386.036 406.367 346.119 399.503 326.195 406.566C326.115 406.595 326.042 406.514 326.071 406.434Z" fill="#CD091D"/>
<path id="Vector 42" d="M1939.23 78.1916C1957.61 28.2994 2000.24 5.34727 2019.45 0.0440455C2019.52 0.023583 2019.58 0.0977681 2019.56 0.172146C1999.19 78.125 1959.28 71.2605 1939.35 78.3239C1939.27 78.3523 1939.2 78.2713 1939.23 78.1916Z" fill="#CD091D"/>
<path id="Vector 40" d="M493.536 239.6C475.153 292.827 432.52 317.312 413.314 322.969C413.24 322.991 413.178 322.918 413.196 322.843C433.565 239.681 473.485 247.005 493.41 239.47C493.489 239.44 493.564 239.52 493.536 239.6Z" fill="#CD091D"/>
<path id="Vector 43" d="M409.402 323.324C356.175 304.941 331.689 262.308 326.032 243.102C326.011 243.028 326.084 242.966 326.159 242.985C409.321 263.353 401.996 303.273 409.531 323.198C409.562 323.277 409.482 323.352 409.402 323.324Z" fill="#CD091D"/>
<path id="Vector 41" d="M493.527 401.209C475.14 354.652 432.519 333.233 413.315 328.284C413.241 328.264 413.181 328.34 413.202 328.414C433.571 401.156 473.483 394.753 493.407 401.344C493.488 401.371 493.558 401.288 493.527 401.209Z" fill="#CD091D"/>
<rect id="Rectangle 1317" x="158.388" y="244.621" width="167.61" height="162.016" fill="white"/>
<rect id="Rectangle 1318" width="116.217" height="116.217" transform="matrix(0.733068 0.680156 -0.733068 0.680155 242.118 249.71)" fill="#585858"/>
<rect id="Rectangle 1319" width="49.6302" height="49.6302" transform="matrix(0.733068 0.680156 -0.733068 0.680155 237.821 295.212)" fill="#CD091D"/>
<rect id="Rectangle 1320" width="58.4062" height="58.4062" transform="matrix(0.693322 -0.720628 0.693322 0.720628 80.9903 376.306)" fill="#BDBDBD"/>
<rect id="Rectangle 1321" width="58.4062" height="58.4062" transform="matrix(0.693322 -0.720628 0.693322 0.720628 80.9903 292.125)" fill="#BDBDBD"/>
<rect id="Rectangle 1322" width="58.4062" height="58.4062" transform="matrix(0.693322 -0.720628 0.693322 0.720628 2.18259e-05 376.306)" fill="#BDBDBD"/>
<rect id="Rectangle 1323" width="58.4062" height="58.4062" transform="matrix(0.693322 -0.720628 0.693322 0.720628 1.81462e-05 292.125)" fill="#BDBDBD"/>
<rect id="Rectangle 1327" width="58.4062" height="58.4062" transform="matrix(0.693322 -0.720628 0.693322 0.720628 80.9903 376.306)" fill="#BDBDBD"/>
<rect id="Rectangle 1328" width="58.4062" height="58.4062" transform="matrix(0.693322 -0.720628 0.693322 0.720628 80.9903 292.125)" fill="#BDBDBD"/>
<rect id="Rectangle 1329" width="58.4062" height="58.4062" transform="matrix(0.693322 -0.720628 0.693322 0.720628 2.18259e-05 376.306)" fill="#BDBDBD"/>
<rect id="Rectangle 1330" width="58.4062" height="58.4062" transform="matrix(0.693322 -0.720628 0.693322 0.720628 1.81462e-05 292.125)" fill="#BDBDBD"/>
</g>
</svg>
